<?xml version="1.0" encoding="UTF-8" standalone="no"?>
<!-- Created with Inkscape (http://www.inkscape.org/) -->

<svg
   xmlns:dc="http://purl.org/dc/elements/1.1/"
   xmlns:cc="http://creativecommons.org/ns#"
   xmlns:rdf="http://www.w3.org/1999/02/22-rdf-syntax-ns#"
   xmlns:svg="http://www.w3.org/2000/svg"
   xmlns="http://www.w3.org/2000/svg"
   xmlns:sodipodi="http://sodipodi.sourceforge.net/DTD/sodipodi-0.dtd"
   xmlns:inkscape="http://www.inkscape.org/namespaces/inkscape"
   version="1.1"
   width="55"
   height="55"
   viewBox="0 0 55 55"
   id="svg2"
   xml:space="preserve"
   inkscape:version="0.48.0 r9654"
   sodipodi:docname="1less.svg"><sodipodi:namedview
   pagecolor="#ffffff"
   bordercolor="#666666"
   borderopacity="1"
   objecttolerance="10"
   gridtolerance="10"
   guidetolerance="10"
   inkscape:pageopacity="0"
   inkscape:pageshadow="2"
   inkscape:window-width="1680"
   inkscape:window-height="1003"
   id="namedview3292"
   showgrid="false"
   inkscape:zoom="5.4363636"
   inkscape:cx="-5.0585284"
   inkscape:cy="27.5"
   inkscape:window-x="0"
   inkscape:window-y="20"
   inkscape:window-maximized="1"
   inkscape:current-layer="svg2" /><defs
   id="defs8" /><metadata
   id="metadata17"><rdf:RDF><cc:Work
       rdf:about=""><dc:format>image/svg+xml</dc:format><dc:type
         rdf:resource="http://purl.org/dc/dcmitype/StillImage" /><dc:title /></cc:Work></rdf:RDF></metadata>
     
     <path
   style="font-size:62.91559982px;font-style:normal;font-variant:normal;font-weight:normal;font-stretch:normal;line-height:125%;letter-spacing:0px;word-spacing:0px;fill:#000000;fill-opacity:1;stroke:none;font-family:Diavlo;-inkscape-font-specification:Diavlo"
   d="M 27.75 3.625 C 21.401073 3.625046 15.985178 5.8693693 11.5 10.375 C 7.0147991 14.860229 4.7812448 20.286894 4.78125 26.65625 C 4.7812448 33.005172 7.0147991 38.410298 11.5 42.875 C 15.985178 47.339716 21.401073 49.5625 27.75 49.5625 C 34.11935 49.5625 39.535247 47.339716 44 42.875 C 48.485146 38.410298 50.749948 33.005172 50.75 26.65625 C 50.749948 20.286894 48.485146 14.860229 44 10.375 C 39.535247 5.8693693 34.11935 3.625046 27.75 3.625 z M 27.75 8.28125 C 32.80861 8.2812913 37.134653 10.072231 40.71875 13.65625 C 44.323245 17.219862 46.124954 21.556674 46.125 26.65625 C 46.124954 31.673951 44.323245 35.999994 40.71875 39.625 C 37.134653 43.229546 32.80861 45.031254 27.75 45.03125 C 22.691333 45.031254 18.365291 43.229546 14.78125 39.625 C 11.21766 35.999994 9.43749 31.673951 9.4375 26.65625 C 9.43749 21.556674 11.21766 17.219862 14.78125 13.65625 C 18.365291 10.072231 22.691333 8.2812913 27.75 8.28125 z M 20.4375 15.96875 C 19.433943 15.968784 18.602562 16.303701 17.90625 17 C 17.209901 17.696363 16.843732 18.558994 16.84375 19.5625 C 16.843732 20.545585 17.209901 21.408216 17.90625 22.125 C 18.602562 22.821358 19.433943 23.156277 20.4375 23.15625 C 21.420534 23.156277 22.272395 22.821358 22.96875 22.125 C 23.685537 21.408216 24.031226 20.545585 24.03125 19.5625 C 24.031226 18.558994 23.685537 17.696363 22.96875 17 C 22.272395 16.303701 21.420534 15.968784 20.4375 15.96875 z M 35.25 15.96875 C 34.246428 15.968784 33.415047 16.303701 32.71875 17 C 32.022386 17.696363 31.656218 18.558994 31.65625 19.5625 C 31.656218 20.545585 32.022386 21.408216 32.71875 22.125 C 33.415047 22.821358 34.246428 23.156277 35.25 23.15625 C 36.233019 23.156277 37.084881 22.821358 37.78125 22.125 C 38.498023 21.408216 38.843711 20.545585 38.84375 19.5625 C 38.843711 18.558994 38.498023 17.696363 37.78125 17 C 37.084881 16.303701 36.233019 15.968784 35.25 15.96875 z M 27.90625 27.34375 C 24.916096 27.343739 22.359452 28.410993 20.25 30.5 C 18.160987 32.609458 17.124983 35.124081 17.125 38.09375 L 19.28125 38.09375 C 19.588435 36.3529 20.407987 34.841973 21.71875 33.53125 C 23.418594 31.831366 25.469064 30.968735 27.90625 30.96875 C 30.322899 30.968735 32.404619 31.831366 34.125 33.53125 C 35.435706 34.841973 36.224008 36.3529 36.53125 38.09375 L 38.65625 38.09375 C 38.656211 35.124081 37.609437 32.609458 35.5 30.5 C 33.410971 28.410993 30.875868 27.343739 27.90625 27.34375 z "
   id="path3320" /></svg>