<?xml version="1.0" encoding="UTF-8" standalone="no"?>
<!-- Created with Inkscape (http://www.inkscape.org/) -->

<svg
   xmlns:dc="http://purl.org/dc/elements/1.1/"
   xmlns:cc="http://creativecommons.org/ns#"
   xmlns:rdf="http://www.w3.org/1999/02/22-rdf-syntax-ns#"
   xmlns:svg="http://www.w3.org/2000/svg"
   xmlns="http://www.w3.org/2000/svg"
   xmlns:sodipodi="http://sodipodi.sourceforge.net/DTD/sodipodi-0.dtd"
   xmlns:inkscape="http://www.inkscape.org/namespaces/inkscape"
   version="1.1"
   width="20"
   height="20"
   viewBox="0 0 20 20"
   id="svg2"
   xml:space="preserve"
   inkscape:version="0.48.0 r9654"
   sodipodi:docname="1up.svg"><sodipodi:namedview
   pagecolor="#ffffff"
   bordercolor="#666666"
   borderopacity="1"
   objecttolerance="10"
   gridtolerance="10"
   guidetolerance="10"
   inkscape:pageopacity="0"
   inkscape:pageshadow="2"
   inkscape:window-width="1680"
   inkscape:window-height="1003"
   id="namedview3019"
   showgrid="false"
   inkscape:zoom="21.745454"
   inkscape:cx="27.44224"
   inkscape:cy="10.908483"
   inkscape:window-x="0"
   inkscape:window-y="20"
   inkscape:window-maximized="1"
   inkscape:current-layer="svg2" /><defs
   id="defs8" /><metadata
   id="metadata17"><rdf:RDF><cc:Work
       rdf:about=""><dc:format>image/svg+xml</dc:format><dc:type
         rdf:resource="http://purl.org/dc/dcmitype/StillImage" /><dc:title /></cc:Work></rdf:RDF></metadata>
     
     <path
   d="M 9.993541,0.5 C 7.3693763,0.50001727 5.1308568,1.4282818 3.2770222,3.2918353 1.423182,5.1469523 0.5,7.3914493 0.5,10.025849 0.5,12.6518 1.423182,14.887389 3.2770222,16.734014 5.1308568,18.580645 7.3693763,19.5 9.993541,19.5 c 2.632607,0 4.87113,-0.919355 6.716522,-2.765986 C 18.563882,14.887389 19.499978,12.6518 19.5,10.025849 19.499978,7.3914493 18.563882,5.1469523 16.710063,3.2918353 14.864671,1.4282818 12.626148,0.50001727 9.993541,0.5 z m 0,1.925851 c 2.090847,1.51e-5 3.878907,0.7407564 5.360301,2.2231266 1.489823,1.4739294 2.234516,3.26766 2.234535,5.3768714 -1.9e-5,2.075349 -0.744712,3.864623 -2.234535,5.363947 -1.481394,1.490859 -3.269454,2.236057 -5.360301,2.236053 -2.0908687,4e-6 -3.8789254,-0.745194 -5.3602976,-2.236053 C 3.1603256,13.890472 2.4245385,12.101198 2.4245415,10.025849 2.4245385,7.9166376 3.1603256,6.122907 4.6332434,4.6489776 6.1146156,3.1666074 7.9026723,2.4258661 9.993541,2.425851 z M 6.9711088,5.6054403 C 6.5563133,5.6054554 6.212685,5.7439801 5.9248809,6.0319729 5.6370617,6.3199873 5.4857181,6.6767793 5.4857241,7.0918353 5.4857181,7.4984442 5.6370521,7.855234 5.9248809,8.1516999 6.2127001,8.4397142 6.5563133,8.5782411 6.9711088,8.5782303 7.3774197,8.5782411 7.7295147,8.4397336 8.017337,8.1516999 8.3135955,7.8552383 8.4564815,7.4984442 8.4564938,7.0918353 8.4564815,6.6767793 8.3136046,6.3199915 8.017337,6.0319729 7.7295175,5.7439888 7.3774197,5.6054554 6.9711088,5.6054403 z m 6.1223652,0 c -0.414801,1.51e-5 -0.75843,0.1385398 -1.046227,0.4265326 -0.287821,0.2880144 -0.439169,0.6448064 -0.439158,1.0598624 -1.1e-5,0.4066089 0.151328,0.7633987 0.439158,1.0598646 0.287788,0.2880143 0.631426,0.4265412 1.046227,0.4265304 0.406305,1.08e-5 0.7584,-0.1384967 1.046229,-0.4265304 C 14.435961,7.8552383 14.578844,7.4984442 14.578859,7.0918353 14.578844,6.6767793 14.435971,6.3199915 14.139703,6.0319729 13.851883,5.7439888 13.499779,5.6054554 13.093474,5.6054403 z M 5.601973,10.310203 c -9e-6,1.22827 0.428198,2.268332 1.2916377,3.140817 0.8718882,0.864024 1.9286089,1.305445 3.1645133,1.305442 1.227415,3e-6 2.275236,-0.441418 3.138681,-1.305442 0.871882,-0.872485 1.304541,-1.912547 1.304556,-3.140817 l -0.878314,0 c -0.126986,0.720025 -0.452815,1.344953 -0.994562,1.887075 -0.711076,0.703083 -1.571503,1.059871 -2.570361,1.059867 -1.0073491,4e-6 -1.8548575,-0.356784 -2.5574452,-1.059867 C 6.95891,11.655156 6.6201686,11.030228 6.4932014,10.310203 l -0.8912284,0 z"
   id="path3146"
   style="font-size:62.91559982px;font-style:normal;font-variant:normal;font-weight:normal;font-stretch:normal;line-height:125%;letter-spacing:0px;word-spacing:0px;fill:#000000;fill-opacity:1;stroke:none;font-family:Diavlo;-inkscape-font-specification:Diavlo"
   inkscape:connector-curvature="0" /></svg>